<svg xmlns="http://www.w3.org/2000/svg" xmlns:xlink="http://www.w3.org/1999/xlink" width="1500" zoomAndPan="magnify" viewBox="0 0 1125 576" height="768" preserveAspectRatio="xMidYMid meet" version="1.0"><defs><g/><clipPath id="id1"><path d="M 659.667969 298.953125 L 691.167969 298.953125 L 691.167969 323.703125 L 659.667969 323.703125 Z M 659.667969 298.953125 " clip-rule="nonzero"/></clipPath><clipPath id="id2"><path d="M 659.667969 346 L 690 346 L 690 377.609375 L 659.667969 377.609375 Z M 659.667969 346 " clip-rule="nonzero"/></clipPath></defs><rect x="-112.5" width="1350" fill="#ffffff" y="-57.6" height="691.2" fill-opacity="1"/><rect x="-112.5" width="1350" fill="#dad7cd" y="-57.6" height="691.2" fill-opacity="1"/><rect x="-112.5" width="1350" fill="#ffffff" y="-57.6" height="691.2" fill-opacity="1"/><rect x="-112.5" width="1350" fill="#dad7cd" y="-57.6" height="691.2" fill-opacity="1"/><path stroke-linecap="butt" transform="matrix(0.000000000000001699, -5.99714, 5.6, 0.000000000000001586, 565.297248, 496.974599)" fill="none" stroke-linejoin="miter" d="M 0.000323995 -0.0000666868 L 69.659183 -0.0000666868 " stroke="#000000" stroke-width="1" stroke-opacity="1" stroke-miterlimit="4"/><g fill="#000000" fill-opacity="1"><g transform="translate(195.383236, 330.533077)"><g><path d="M 7.046875 0 L 7.046875 -63.671875 L 23.875 -63.671875 L 23.875 -52.4375 L 24.625 -52.4375 C 25.945312 -56.195312 28.160156 -59.144531 31.265625 -61.28125 C 34.378906 -63.425781 38.078125 -64.5 42.359375 -64.5 C 46.734375 -64.5 50.453125 -63.414062 53.515625 -61.25 C 56.585938 -59.082031 58.632812 -56.144531 59.65625 -52.4375 L 60.3125 -52.4375 C 61.613281 -56.082031 63.96875 -59.003906 67.375 -61.203125 C 70.789062 -63.398438 74.835938 -64.5 79.515625 -64.5 C 85.453125 -64.5 90.28125 -62.613281 94 -58.84375 C 97.71875 -55.070312 99.578125 -49.734375 99.578125 -42.828125 L 99.578125 0 L 81.953125 0 L 81.953125 -39.34375 C 81.953125 -42.875 81.007812 -45.523438 79.125 -47.296875 C 77.25 -49.066406 74.90625 -49.953125 72.09375 -49.953125 C 68.882812 -49.953125 66.378906 -48.925781 64.578125 -46.875 C 62.785156 -44.832031 61.890625 -42.171875 61.890625 -38.890625 L 61.890625 0 L 44.765625 0 L 44.765625 -39.71875 C 44.765625 -42.832031 43.875 -45.316406 42.09375 -47.171875 C 40.3125 -49.023438 37.96875 -49.953125 35.0625 -49.953125 C 32.132812 -49.953125 29.675781 -48.878906 27.6875 -46.734375 C 25.695312 -44.597656 24.703125 -41.757812 24.703125 -38.21875 L 24.703125 0 Z M 7.046875 0 "/></g></g></g><g fill="#000000" fill-opacity="1"><g transform="translate(292.8344, 330.533077)"><g><path d="M 7.046875 0 L 7.046875 -84.890625 L 24.703125 -84.890625 L 24.703125 -39.5 L 25.65625 -39.5 L 46.0625 -63.671875 L 66.328125 -63.671875 L 42.703125 -36.109375 L 67.53125 0 L 46.84375 0 L 29.46875 -25.65625 L 24.703125 -20.234375 L 24.703125 0 Z M 7.046875 0 "/></g></g></g><g clip-path="url(#id1)"><path fill="#000000" d="M 686.734375 301.210938 L 664.101562 301.210938 L 674.730469 309.382812 C 675.136719 309.691406 675.699219 309.691406 676.105469 309.382812 Z M 661.917969 302.367188 L 661.917969 321.445312 L 688.917969 321.445312 L 688.917969 302.367188 L 677.476562 311.164062 C 676.261719 312.097656 674.574219 312.097656 673.359375 311.164062 Z M 659.667969 301.210938 C 659.667969 299.96875 660.675781 298.960938 661.917969 298.960938 L 688.917969 298.960938 C 690.160156 298.960938 691.167969 299.96875 691.167969 301.210938 L 691.167969 321.445312 C 691.167969 322.6875 690.160156 323.695312 688.917969 323.695312 L 661.917969 323.695312 C 660.675781 323.695312 659.667969 322.6875 659.667969 321.445312 Z M 659.667969 301.210938 " fill-opacity="1" fill-rule="evenodd"/></g><g fill="#000000" fill-opacity="1"><g transform="translate(707.241883, 320.696109)"><g><path d="M 1.734375 0 L 1.734375 -12.3125 L 3.5625 -12.3125 L 3.5625 -10.390625 L 3.71875 -10.390625 C 3.976562 -11.046875 4.390625 -11.554688 4.953125 -11.921875 C 5.523438 -12.285156 6.210938 -12.46875 7.015625 -12.46875 C 7.828125 -12.46875 8.503906 -12.285156 9.046875 -11.921875 C 9.585938 -11.554688 10.007812 -11.046875 10.3125 -10.390625 L 10.453125 -10.390625 C 10.765625 -11.023438 11.234375 -11.53125 11.859375 -11.90625 C 12.492188 -12.28125 13.253906 -12.46875 14.140625 -12.46875 C 15.234375 -12.46875 16.128906 -12.125 16.828125 -11.4375 C 17.535156 -10.75 17.890625 -9.679688 17.890625 -8.234375 L 17.890625 0 L 16 0 L 16 -8.234375 C 16 -9.140625 15.75 -9.785156 15.25 -10.171875 C 14.75 -10.566406 14.164062 -10.765625 13.5 -10.765625 C 12.625 -10.765625 11.945312 -10.503906 11.46875 -9.984375 C 11 -9.460938 10.765625 -8.804688 10.765625 -8.015625 L 10.765625 0 L 8.84375 0 L 8.84375 -8.421875 C 8.84375 -9.128906 8.613281 -9.695312 8.15625 -10.125 C 7.707031 -10.550781 7.125 -10.765625 6.40625 -10.765625 C 5.914062 -10.765625 5.457031 -10.632812 5.03125 -10.375 C 4.613281 -10.113281 4.273438 -9.75 4.015625 -9.28125 C 3.753906 -8.820312 3.625 -8.289062 3.625 -7.6875 L 3.625 0 Z M 1.734375 0 "/></g></g></g><g fill="#000000" fill-opacity="1"><g transform="translate(726.852477, 320.696109)"><g><path d="M 6.734375 0.25 C 5.617188 0.25 4.644531 -0.0078125 3.8125 -0.53125 C 2.976562 -1.0625 2.328125 -1.800781 1.859375 -2.75 C 1.390625 -3.707031 1.15625 -4.820312 1.15625 -6.09375 C 1.15625 -7.375 1.390625 -8.488281 1.859375 -9.4375 C 2.328125 -10.394531 2.976562 -11.140625 3.8125 -11.671875 C 4.644531 -12.203125 5.617188 -12.46875 6.734375 -12.46875 C 7.835938 -12.46875 8.804688 -12.203125 9.640625 -11.671875 C 10.484375 -11.140625 11.140625 -10.394531 11.609375 -9.4375 C 12.078125 -8.488281 12.3125 -7.375 12.3125 -6.09375 C 12.3125 -4.820312 12.078125 -3.707031 11.609375 -2.75 C 11.140625 -1.800781 10.484375 -1.0625 9.640625 -0.53125 C 8.804688 -0.0078125 7.835938 0.25 6.734375 0.25 Z M 6.734375 -1.4375 C 7.578125 -1.4375 8.269531 -1.648438 8.8125 -2.078125 C 9.351562 -2.515625 9.753906 -3.085938 10.015625 -3.796875 C 10.285156 -4.503906 10.421875 -5.269531 10.421875 -6.09375 C 10.421875 -6.914062 10.285156 -7.679688 10.015625 -8.390625 C 9.753906 -9.097656 9.351562 -9.671875 8.8125 -10.109375 C 8.269531 -10.546875 7.578125 -10.765625 6.734375 -10.765625 C 5.890625 -10.765625 5.191406 -10.546875 4.640625 -10.109375 C 4.097656 -9.671875 3.695312 -9.097656 3.4375 -8.390625 C 3.175781 -7.679688 3.046875 -6.914062 3.046875 -6.09375 C 3.046875 -5.269531 3.175781 -4.503906 3.4375 -3.796875 C 3.695312 -3.085938 4.097656 -2.515625 4.640625 -2.078125 C 5.191406 -1.648438 5.890625 -1.4375 6.734375 -1.4375 Z M 6.734375 -1.4375 "/></g></g></g><g fill="#000000" fill-opacity="1"><g transform="translate(740.310729, 320.696109)"><g><path d="M 3.625 -7.40625 L 3.625 0 L 1.734375 0 L 1.734375 -12.3125 L 3.5625 -12.3125 L 3.5625 -10.390625 L 3.71875 -10.390625 C 4.007812 -11.015625 4.445312 -11.515625 5.03125 -11.890625 C 5.613281 -12.273438 6.375 -12.46875 7.3125 -12.46875 C 8.550781 -12.46875 9.550781 -12.082031 10.3125 -11.3125 C 11.082031 -10.550781 11.46875 -9.382812 11.46875 -7.8125 L 11.46875 0 L 9.578125 0 L 9.578125 -7.6875 C 9.578125 -8.65625 9.328125 -9.410156 8.828125 -9.953125 C 8.328125 -10.492188 7.640625 -10.765625 6.765625 -10.765625 C 5.859375 -10.765625 5.109375 -10.472656 4.515625 -9.890625 C 3.921875 -9.304688 3.625 -8.476562 3.625 -7.40625 Z M 3.625 -7.40625 "/></g></g></g><g fill="#000000" fill-opacity="1"><g transform="translate(753.512633, 320.696109)"><g><path d="M 1.734375 0 L 1.734375 -12.3125 L 3.625 -12.3125 L 3.625 0 Z M 2.6875 -14.359375 C 2.320312 -14.359375 2.003906 -14.484375 1.734375 -14.734375 C 1.472656 -14.984375 1.34375 -15.285156 1.34375 -15.640625 C 1.34375 -15.992188 1.472656 -16.296875 1.734375 -16.546875 C 2.003906 -16.796875 2.320312 -16.921875 2.6875 -16.921875 C 3.0625 -16.921875 3.378906 -16.796875 3.640625 -16.546875 C 3.898438 -16.296875 4.03125 -15.992188 4.03125 -15.640625 C 4.03125 -15.285156 3.898438 -14.984375 3.640625 -14.734375 C 3.378906 -14.484375 3.0625 -14.359375 2.6875 -14.359375 Z M 2.6875 -14.359375 "/></g></g></g><g fill="#000000" fill-opacity="1"><g transform="translate(758.86389, 320.696109)"><g><path d="M 6.734375 0.25 C 5.578125 0.25 4.582031 -0.0195312 3.75 -0.5625 C 2.914062 -1.101562 2.273438 -1.851562 1.828125 -2.8125 C 1.378906 -3.769531 1.15625 -4.863281 1.15625 -6.09375 C 1.15625 -7.34375 1.382812 -8.445312 1.84375 -9.40625 C 2.3125 -10.363281 2.957031 -11.113281 3.78125 -11.65625 C 4.613281 -12.195312 5.585938 -12.46875 6.703125 -12.46875 C 7.566406 -12.46875 8.34375 -12.304688 9.03125 -11.984375 C 9.726562 -11.660156 10.296875 -11.210938 10.734375 -10.640625 C 11.179688 -10.066406 11.457031 -9.394531 11.5625 -8.625 L 9.671875 -8.625 C 9.535156 -9.1875 9.21875 -9.679688 8.71875 -10.109375 C 8.226562 -10.546875 7.566406 -10.765625 6.734375 -10.765625 C 5.628906 -10.765625 4.738281 -10.34375 4.0625 -9.5 C 3.382812 -8.664062 3.046875 -7.550781 3.046875 -6.15625 C 3.046875 -4.726562 3.378906 -3.582031 4.046875 -2.71875 C 4.710938 -1.863281 5.609375 -1.4375 6.734375 -1.4375 C 7.472656 -1.4375 8.101562 -1.625 8.625 -2 C 9.15625 -2.382812 9.503906 -2.914062 9.671875 -3.59375 L 11.5625 -3.59375 C 11.457031 -2.863281 11.195312 -2.207031 10.78125 -1.625 C 10.363281 -1.050781 9.8125 -0.59375 9.125 -0.25 C 8.4375 0.0820312 7.640625 0.25 6.734375 0.25 Z M 6.734375 0.25 "/></g></g></g><g fill="#000000" fill-opacity="1"><g transform="translate(771.456967, 320.696109)"><g><path d="M 5.359375 0.28125 C 4.578125 0.28125 3.867188 0.132812 3.234375 -0.15625 C 2.597656 -0.445312 2.09375 -0.875 1.71875 -1.4375 C 1.34375 -2.007812 1.15625 -2.695312 1.15625 -3.5 C 1.15625 -4.195312 1.289062 -4.765625 1.5625 -5.203125 C 1.84375 -5.648438 2.210938 -6 2.671875 -6.25 C 3.140625 -6.5 3.65625 -6.6875 4.21875 -6.8125 C 4.789062 -6.9375 5.359375 -7.035156 5.921875 -7.109375 C 6.671875 -7.210938 7.28125 -7.285156 7.75 -7.328125 C 8.21875 -7.378906 8.5625 -7.46875 8.78125 -7.59375 C 9 -7.71875 9.109375 -7.929688 9.109375 -8.234375 L 9.109375 -8.296875 C 9.109375 -9.085938 8.890625 -9.703125 8.453125 -10.140625 C 8.023438 -10.578125 7.375 -10.796875 6.5 -10.796875 C 5.601562 -10.796875 4.894531 -10.597656 4.375 -10.203125 C 3.863281 -9.804688 3.503906 -9.382812 3.296875 -8.9375 L 1.5 -9.578125 C 1.820312 -10.328125 2.25 -10.910156 2.78125 -11.328125 C 3.320312 -11.753906 3.910156 -12.050781 4.546875 -12.21875 C 5.191406 -12.382812 5.820312 -12.46875 6.4375 -12.46875 C 6.832031 -12.46875 7.285156 -12.421875 7.796875 -12.328125 C 8.316406 -12.234375 8.816406 -12.039062 9.296875 -11.75 C 9.785156 -11.46875 10.191406 -11.035156 10.515625 -10.453125 C 10.835938 -9.867188 11 -9.085938 11 -8.109375 L 11 0 L 9.109375 0 L 9.109375 -1.671875 L 9 -1.671875 C 8.875 -1.398438 8.660156 -1.113281 8.359375 -0.8125 C 8.066406 -0.507812 7.671875 -0.25 7.171875 -0.03125 C 6.671875 0.175781 6.066406 0.28125 5.359375 0.28125 Z M 5.640625 -1.40625 C 6.390625 -1.40625 7.019531 -1.550781 7.53125 -1.84375 C 8.050781 -2.144531 8.441406 -2.523438 8.703125 -2.984375 C 8.972656 -3.453125 9.109375 -3.941406 9.109375 -4.453125 L 9.109375 -6.1875 C 9.023438 -6.09375 8.847656 -6.003906 8.578125 -5.921875 C 8.304688 -5.847656 7.992188 -5.78125 7.640625 -5.71875 C 7.296875 -5.664062 6.957031 -5.617188 6.625 -5.578125 C 6.300781 -5.535156 6.035156 -5.503906 5.828125 -5.484375 C 5.335938 -5.421875 4.878906 -5.316406 4.453125 -5.171875 C 4.035156 -5.023438 3.695312 -4.8125 3.4375 -4.53125 C 3.175781 -4.257812 3.046875 -3.878906 3.046875 -3.390625 C 3.046875 -2.734375 3.289062 -2.238281 3.78125 -1.90625 C 4.269531 -1.570312 4.890625 -1.40625 5.640625 -1.40625 Z M 5.640625 -1.40625 "/></g></g></g><g fill="#000000" fill-opacity="1"><g transform="translate(784.178219, 320.696109)"><g><path d="M 10.21875 0 L 10.21875 1.765625 L -0.03125 1.765625 L -0.03125 0 Z M 10.21875 0 "/></g></g></g><g fill="#000000" fill-opacity="1"><g transform="translate(794.368038, 320.696109)"><g><path d="M 1.734375 0 L 1.734375 -16.40625 L 3.625 -16.40625 L 3.625 -6.828125 L 3.84375 -6.828125 L 9.234375 -12.3125 L 11.5625 -12.3125 L 6.375 -7.046875 L 11.953125 0 L 9.546875 0 L 4.9375 -5.828125 L 3.625 -4.609375 L 3.625 0 Z M 1.734375 0 "/></g></g></g><g fill="#000000" fill-opacity="1"><g transform="translate(806.640682, 320.696109)"><g><path d="M 1.734375 -12.3125 L 3.625 -12.3125 L 3.625 0.890625 C 3.625 2.035156 3.332031 2.941406 2.75 3.609375 C 2.164062 4.273438 1.28125 4.609375 0.09375 4.609375 L -0.28125 4.609375 L -0.28125 2.859375 L 0.0625 2.859375 C 0.632812 2.859375 1.054688 2.6875 1.328125 2.34375 C 1.597656 2 1.734375 1.515625 1.734375 0.890625 Z M 2.6875 -14.359375 C 2.320312 -14.359375 2.003906 -14.484375 1.734375 -14.734375 C 1.472656 -14.984375 1.34375 -15.285156 1.34375 -15.640625 C 1.34375 -15.992188 1.472656 -16.296875 1.734375 -16.546875 C 2.003906 -16.796875 2.320312 -16.921875 2.6875 -16.921875 C 3.0625 -16.921875 3.378906 -16.796875 3.640625 -16.546875 C 3.898438 -16.296875 4.03125 -15.992188 4.03125 -15.640625 C 4.03125 -15.285156 3.898438 -14.984375 3.640625 -14.734375 C 3.378906 -14.484375 3.0625 -14.359375 2.6875 -14.359375 Z M 2.6875 -14.359375 "/></g></g></g><g fill="#000000" fill-opacity="1"><g transform="translate(811.991939, 320.696109)"><g><path d="M 1.734375 0 L 1.734375 -12.3125 L 3.5625 -12.3125 L 3.5625 -10.453125 L 3.6875 -10.453125 C 3.90625 -11.054688 4.304688 -11.546875 4.890625 -11.921875 C 5.484375 -12.304688 6.148438 -12.5 6.890625 -12.5 C 7.234375 -12.5 7.53125 -12.457031 7.78125 -12.375 C 8.039062 -12.300781 8.269531 -12.191406 8.46875 -12.046875 L 7.8125 -10.453125 C 7.6875 -10.515625 7.53125 -10.566406 7.34375 -10.609375 C 7.164062 -10.648438 6.960938 -10.671875 6.734375 -10.671875 C 5.835938 -10.671875 5.09375 -10.394531 4.5 -9.84375 C 3.914062 -9.300781 3.625 -8.613281 3.625 -7.78125 L 3.625 0 Z M 1.734375 0 "/></g></g></g><g fill="#000000" fill-opacity="1"><g transform="translate(820.643672, 320.696109)"><g><path d="M 11.796875 -12.3125 L 7.25 0 L 5.3125 0 L 0.765625 -12.3125 L 2.828125 -12.3125 L 6.21875 -2.5 L 6.34375 -2.5 L 9.75 -12.3125 Z M 11.796875 -12.3125 "/></g></g></g><g fill="#000000" fill-opacity="1"><g transform="translate(833.204707, 320.696109)"><g><path d="M 6.734375 0.25 C 5.617188 0.25 4.644531 -0.0078125 3.8125 -0.53125 C 2.976562 -1.0625 2.328125 -1.800781 1.859375 -2.75 C 1.390625 -3.707031 1.15625 -4.820312 1.15625 -6.09375 C 1.15625 -7.375 1.390625 -8.488281 1.859375 -9.4375 C 2.328125 -10.394531 2.976562 -11.140625 3.8125 -11.671875 C 4.644531 -12.203125 5.617188 -12.46875 6.734375 -12.46875 C 7.835938 -12.46875 8.804688 -12.203125 9.640625 -11.671875 C 10.484375 -11.140625 11.140625 -10.394531 11.609375 -9.4375 C 12.078125 -8.488281 12.3125 -7.375 12.3125 -6.09375 C 12.3125 -4.820312 12.078125 -3.707031 11.609375 -2.75 C 11.140625 -1.800781 10.484375 -1.0625 9.640625 -0.53125 C 8.804688 -0.0078125 7.835938 0.25 6.734375 0.25 Z M 6.734375 -1.4375 C 7.578125 -1.4375 8.269531 -1.648438 8.8125 -2.078125 C 9.351562 -2.515625 9.753906 -3.085938 10.015625 -3.796875 C 10.285156 -4.503906 10.421875 -5.269531 10.421875 -6.09375 C 10.421875 -6.914062 10.285156 -7.679688 10.015625 -8.390625 C 9.753906 -9.097656 9.351562 -9.671875 8.8125 -10.109375 C 8.269531 -10.546875 7.578125 -10.765625 6.734375 -10.765625 C 5.890625 -10.765625 5.191406 -10.546875 4.640625 -10.109375 C 4.097656 -9.671875 3.695312 -9.097656 3.4375 -8.390625 C 3.175781 -7.679688 3.046875 -6.914062 3.046875 -6.09375 C 3.046875 -5.269531 3.175781 -4.503906 3.4375 -3.796875 C 3.695312 -3.085938 4.097656 -2.515625 4.640625 -2.078125 C 5.191406 -1.648438 5.890625 -1.4375 6.734375 -1.4375 Z M 6.734375 -1.4375 "/></g></g></g><g fill="#000000" fill-opacity="1"><g transform="translate(846.662958, 320.696109)"><g><path d="M 3.625 -16.40625 L 3.625 0 L 1.734375 0 L 1.734375 -16.40625 Z M 3.625 -16.40625 "/></g></g></g><g fill="#000000" fill-opacity="1"><g transform="translate(852.014215, 320.696109)"><g><path d="M 3.625 -16.40625 L 3.625 0 L 1.734375 0 L 1.734375 -16.40625 Z M 3.625 -16.40625 "/></g></g></g><g fill="#000000" fill-opacity="1"><g transform="translate(857.365472, 320.696109)"><g><path d="M 10.953125 -15.796875 C 12.460938 -15.796875 13.78125 -15.550781 14.90625 -15.0625 C 16.03125 -14.570312 16.972656 -13.910156 17.734375 -13.078125 C 18.503906 -12.253906 19.078125 -11.320312 19.453125 -10.28125 C 19.835938 -9.25 20.03125 -8.179688 20.03125 -7.078125 C 20.03125 -6.304688 19.992188 -5.519531 19.921875 -4.71875 C 19.847656 -3.925781 19.6875 -3.195312 19.4375 -2.53125 C 19.195312 -1.863281 18.828125 -1.328125 18.328125 -0.921875 C 17.835938 -0.523438 17.164062 -0.328125 16.3125 -0.328125 C 15.9375 -0.328125 15.523438 -0.382812 15.078125 -0.5 C 14.628906 -0.613281 14.226562 -0.804688 13.875 -1.078125 C 13.53125 -1.347656 13.328125 -1.710938 13.265625 -2.171875 L 13.171875 -2.171875 C 12.984375 -1.710938 12.632812 -1.296875 12.125 -0.921875 C 11.625 -0.554688 10.914062 -0.390625 10 -0.421875 C 9.070312 -0.453125 8.289062 -0.710938 7.65625 -1.203125 C 7.03125 -1.691406 6.554688 -2.34375 6.234375 -3.15625 C 5.921875 -3.96875 5.765625 -4.878906 5.765625 -5.890625 C 5.765625 -6.859375 5.945312 -7.710938 6.3125 -8.453125 C 6.6875 -9.191406 7.191406 -9.78125 7.828125 -10.21875 C 8.472656 -10.664062 9.195312 -10.9375 10 -11.03125 C 10.800781 -11.101562 11.484375 -11.015625 12.046875 -10.765625 C 12.617188 -10.523438 12.960938 -10.226562 13.078125 -9.875 L 13.171875 -9.875 L 13.171875 -10.765625 L 14.875 -10.765625 L 14.875 -3.53125 C 14.875 -3.082031 15 -2.6875 15.25 -2.34375 C 15.5 -2 15.863281 -1.828125 16.34375 -1.828125 C 17.164062 -1.828125 17.707031 -2.25 17.96875 -3.09375 C 18.226562 -3.945312 18.359375 -5.285156 18.359375 -7.109375 C 18.359375 -8.015625 18.207031 -8.894531 17.90625 -9.75 C 17.601562 -10.601562 17.140625 -11.367188 16.515625 -12.046875 C 15.898438 -12.734375 15.125 -13.28125 14.1875 -13.6875 C 13.25 -14.09375 12.140625 -14.296875 10.859375 -14.296875 C 9.179688 -14.296875 7.742188 -13.953125 6.546875 -13.265625 C 5.359375 -12.585938 4.445312 -11.609375 3.8125 -10.328125 C 3.175781 -9.046875 2.859375 -7.515625 2.859375 -5.734375 C 2.859375 -3.015625 3.570312 -0.914062 5 0.5625 C 6.425781 2.039062 8.507812 2.78125 11.25 2.78125 C 11.832031 2.78125 12.410156 2.722656 12.984375 2.609375 C 13.554688 2.503906 14.0625 2.382812 14.5 2.25 C 14.9375 2.113281 15.253906 2.015625 15.453125 1.953125 L 15.890625 3.421875 C 15.566406 3.566406 15.140625 3.707031 14.609375 3.84375 C 14.078125 3.976562 13.507812 4.09375 12.90625 4.1875 C 12.300781 4.28125 11.726562 4.328125 11.1875 4.328125 C 7.914062 4.328125 5.414062 3.445312 3.6875 1.6875 C 1.957031 -0.0703125 1.09375 -2.566406 1.09375 -5.796875 C 1.09375 -7.878906 1.484375 -9.664062 2.265625 -11.15625 C 3.046875 -12.65625 4.175781 -13.800781 5.65625 -14.59375 C 7.132812 -15.394531 8.898438 -15.796875 10.953125 -15.796875 Z M 10.3125 -9.453125 C 9.707031 -9.453125 9.1875 -9.289062 8.75 -8.96875 C 8.320312 -8.65625 7.992188 -8.234375 7.765625 -7.703125 C 7.546875 -7.179688 7.4375 -6.613281 7.4375 -6 C 7.4375 -5.3125 7.523438 -4.664062 7.703125 -4.0625 C 7.890625 -3.46875 8.1875 -2.984375 8.59375 -2.609375 C 9.007812 -2.234375 9.5625 -2.046875 10.25 -2.046875 C 11.320312 -2.046875 12.09375 -2.367188 12.5625 -3.015625 C 13.03125 -3.671875 13.265625 -4.664062 13.265625 -6 C 13.265625 -7.34375 13.015625 -8.253906 12.515625 -8.734375 C 12.015625 -9.210938 11.28125 -9.453125 10.3125 -9.453125 Z M 10.3125 -9.453125 "/></g></g></g><g fill="#000000" fill-opacity="1"><g transform="translate(878.48211, 320.696109)"><g><path d="M 2.890625 4.78125 C 2.566406 4.78125 2.28125 4.753906 2.03125 4.703125 C 1.78125 4.648438 1.601562 4.597656 1.5 4.546875 L 1.984375 2.890625 C 2.671875 3.066406 3.242188 3.0625 3.703125 2.875 C 4.171875 2.6875 4.570312 2.132812 4.90625 1.21875 L 5.3125 0.0625 L 0.765625 -12.3125 L 2.828125 -12.3125 L 6.21875 -2.5 L 6.34375 -2.5 L 9.75 -12.3125 L 11.796875 -12.3125 L 6.5 1.984375 C 5.8125 3.847656 4.609375 4.78125 2.890625 4.78125 Z M 2.890625 4.78125 "/></g></g></g><g fill="#000000" fill-opacity="1"><g transform="translate(891.043145, 320.696109)"><g><path d="M 5.359375 0.28125 C 4.578125 0.28125 3.867188 0.132812 3.234375 -0.15625 C 2.597656 -0.445312 2.09375 -0.875 1.71875 -1.4375 C 1.34375 -2.007812 1.15625 -2.695312 1.15625 -3.5 C 1.15625 -4.195312 1.289062 -4.765625 1.5625 -5.203125 C 1.84375 -5.648438 2.210938 -6 2.671875 -6.25 C 3.140625 -6.5 3.65625 -6.6875 4.21875 -6.8125 C 4.789062 -6.9375 5.359375 -7.035156 5.921875 -7.109375 C 6.671875 -7.210938 7.28125 -7.285156 7.75 -7.328125 C 8.21875 -7.378906 8.5625 -7.46875 8.78125 -7.59375 C 9 -7.71875 9.109375 -7.929688 9.109375 -8.234375 L 9.109375 -8.296875 C 9.109375 -9.085938 8.890625 -9.703125 8.453125 -10.140625 C 8.023438 -10.578125 7.375 -10.796875 6.5 -10.796875 C 5.601562 -10.796875 4.894531 -10.597656 4.375 -10.203125 C 3.863281 -9.804688 3.503906 -9.382812 3.296875 -8.9375 L 1.5 -9.578125 C 1.820312 -10.328125 2.25 -10.910156 2.78125 -11.328125 C 3.320312 -11.753906 3.910156 -12.050781 4.546875 -12.21875 C 5.191406 -12.382812 5.820312 -12.46875 6.4375 -12.46875 C 6.832031 -12.46875 7.285156 -12.421875 7.796875 -12.328125 C 8.316406 -12.234375 8.816406 -12.039062 9.296875 -11.75 C 9.785156 -11.46875 10.191406 -11.035156 10.515625 -10.453125 C 10.835938 -9.867188 11 -9.085938 11 -8.109375 L 11 0 L 9.109375 0 L 9.109375 -1.671875 L 9 -1.671875 C 8.875 -1.398438 8.660156 -1.113281 8.359375 -0.8125 C 8.066406 -0.507812 7.671875 -0.25 7.171875 -0.03125 C 6.671875 0.175781 6.066406 0.28125 5.359375 0.28125 Z M 5.640625 -1.40625 C 6.390625 -1.40625 7.019531 -1.550781 7.53125 -1.84375 C 8.050781 -2.144531 8.441406 -2.523438 8.703125 -2.984375 C 8.972656 -3.453125 9.109375 -3.941406 9.109375 -4.453125 L 9.109375 -6.1875 C 9.023438 -6.09375 8.847656 -6.003906 8.578125 -5.921875 C 8.304688 -5.847656 7.992188 -5.78125 7.640625 -5.71875 C 7.296875 -5.664062 6.957031 -5.617188 6.625 -5.578125 C 6.300781 -5.535156 6.035156 -5.503906 5.828125 -5.484375 C 5.335938 -5.421875 4.878906 -5.316406 4.453125 -5.171875 C 4.035156 -5.023438 3.695312 -4.8125 3.4375 -4.53125 C 3.175781 -4.257812 3.046875 -3.878906 3.046875 -3.390625 C 3.046875 -2.734375 3.289062 -2.238281 3.78125 -1.90625 C 4.269531 -1.570312 4.890625 -1.40625 5.640625 -1.40625 Z M 5.640625 -1.40625 "/></g></g></g><g fill="#000000" fill-opacity="1"><g transform="translate(903.764397, 320.696109)"><g><path d="M 3.625 -7.40625 L 3.625 0 L 1.734375 0 L 1.734375 -16.40625 L 3.625 -16.40625 L 3.625 -10.390625 L 3.78125 -10.390625 C 4.070312 -11.023438 4.503906 -11.53125 5.078125 -11.90625 C 5.660156 -12.28125 6.4375 -12.46875 7.40625 -12.46875 C 8.664062 -12.46875 9.679688 -12.085938 10.453125 -11.328125 C 11.222656 -10.566406 11.609375 -9.394531 11.609375 -7.8125 L 11.609375 0 L 9.703125 0 L 9.703125 -7.6875 C 9.703125 -8.664062 9.453125 -9.421875 8.953125 -9.953125 C 8.453125 -10.492188 7.753906 -10.765625 6.859375 -10.765625 C 5.921875 -10.765625 5.144531 -10.472656 4.53125 -9.890625 C 3.925781 -9.304688 3.625 -8.476562 3.625 -7.40625 Z M 3.625 -7.40625 "/></g></g></g><g fill="#000000" fill-opacity="1"><g transform="translate(917.094475, 320.696109)"><g><path d="M 6.734375 0.25 C 5.617188 0.25 4.644531 -0.0078125 3.8125 -0.53125 C 2.976562 -1.0625 2.328125 -1.800781 1.859375 -2.75 C 1.390625 -3.707031 1.15625 -4.820312 1.15625 -6.09375 C 1.15625 -7.375 1.390625 -8.488281 1.859375 -9.4375 C 2.328125 -10.394531 2.976562 -11.140625 3.8125 -11.671875 C 4.644531 -12.203125 5.617188 -12.46875 6.734375 -12.46875 C 7.835938 -12.46875 8.804688 -12.203125 9.640625 -11.671875 C 10.484375 -11.140625 11.140625 -10.394531 11.609375 -9.4375 C 12.078125 -8.488281 12.3125 -7.375 12.3125 -6.09375 C 12.3125 -4.820312 12.078125 -3.707031 11.609375 -2.75 C 11.140625 -1.800781 10.484375 -1.0625 9.640625 -0.53125 C 8.804688 -0.0078125 7.835938 0.25 6.734375 0.25 Z M 6.734375 -1.4375 C 7.578125 -1.4375 8.269531 -1.648438 8.8125 -2.078125 C 9.351562 -2.515625 9.753906 -3.085938 10.015625 -3.796875 C 10.285156 -4.503906 10.421875 -5.269531 10.421875 -6.09375 C 10.421875 -6.914062 10.285156 -7.679688 10.015625 -8.390625 C 9.753906 -9.097656 9.351562 -9.671875 8.8125 -10.109375 C 8.269531 -10.546875 7.578125 -10.765625 6.734375 -10.765625 C 5.890625 -10.765625 5.191406 -10.546875 4.640625 -10.109375 C 4.097656 -9.671875 3.695312 -9.097656 3.4375 -8.390625 C 3.175781 -7.679688 3.046875 -6.914062 3.046875 -6.09375 C 3.046875 -5.269531 3.175781 -4.503906 3.4375 -3.796875 C 3.695312 -3.085938 4.097656 -2.515625 4.640625 -2.078125 C 5.191406 -1.648438 5.890625 -1.4375 6.734375 -1.4375 Z M 6.734375 -1.4375 "/></g></g></g><g fill="#000000" fill-opacity="1"><g transform="translate(930.552726, 320.696109)"><g><path d="M 6.734375 0.25 C 5.617188 0.25 4.644531 -0.0078125 3.8125 -0.53125 C 2.976562 -1.0625 2.328125 -1.800781 1.859375 -2.75 C 1.390625 -3.707031 1.15625 -4.820312 1.15625 -6.09375 C 1.15625 -7.375 1.390625 -8.488281 1.859375 -9.4375 C 2.328125 -10.394531 2.976562 -11.140625 3.8125 -11.671875 C 4.644531 -12.203125 5.617188 -12.46875 6.734375 -12.46875 C 7.835938 -12.46875 8.804688 -12.203125 9.640625 -11.671875 C 10.484375 -11.140625 11.140625 -10.394531 11.609375 -9.4375 C 12.078125 -8.488281 12.3125 -7.375 12.3125 -6.09375 C 12.3125 -4.820312 12.078125 -3.707031 11.609375 -2.75 C 11.140625 -1.800781 10.484375 -1.0625 9.640625 -0.53125 C 8.804688 -0.0078125 7.835938 0.25 6.734375 0.25 Z M 6.734375 -1.4375 C 7.578125 -1.4375 8.269531 -1.648438 8.8125 -2.078125 C 9.351562 -2.515625 9.753906 -3.085938 10.015625 -3.796875 C 10.285156 -4.503906 10.421875 -5.269531 10.421875 -6.09375 C 10.421875 -6.914062 10.285156 -7.679688 10.015625 -8.390625 C 9.753906 -9.097656 9.351562 -9.671875 8.8125 -10.109375 C 8.269531 -10.546875 7.578125 -10.765625 6.734375 -10.765625 C 5.890625 -10.765625 5.191406 -10.546875 4.640625 -10.109375 C 4.097656 -9.671875 3.695312 -9.097656 3.4375 -8.390625 C 3.175781 -7.679688 3.046875 -6.914062 3.046875 -6.09375 C 3.046875 -5.269531 3.175781 -4.503906 3.4375 -3.796875 C 3.695312 -3.085938 4.097656 -2.515625 4.640625 -2.078125 C 5.191406 -1.648438 5.890625 -1.4375 6.734375 -1.4375 Z M 6.734375 -1.4375 "/></g></g></g><g fill="#000000" fill-opacity="1"><g transform="translate(944.010977, 320.696109)"><g><path d="M 3.109375 0.125 C 2.710938 0.125 2.375 -0.015625 2.09375 -0.296875 C 1.8125 -0.578125 1.671875 -0.914062 1.671875 -1.3125 C 1.671875 -1.707031 1.8125 -2.046875 2.09375 -2.328125 C 2.375 -2.609375 2.710938 -2.75 3.109375 -2.75 C 3.503906 -2.75 3.84375 -2.609375 4.125 -2.328125 C 4.40625 -2.046875 4.546875 -1.707031 4.546875 -1.3125 C 4.546875 -0.914062 4.40625 -0.578125 4.125 -0.296875 C 3.84375 -0.015625 3.503906 0.125 3.109375 0.125 Z M 3.109375 0.125 "/></g></g></g><g fill="#000000" fill-opacity="1"><g transform="translate(950.227408, 320.696109)"><g><path d="M 3.625 -7.40625 L 3.625 0 L 1.734375 0 L 1.734375 -12.3125 L 3.5625 -12.3125 L 3.5625 -10.390625 L 3.71875 -10.390625 C 4.007812 -11.015625 4.445312 -11.515625 5.03125 -11.890625 C 5.613281 -12.273438 6.375 -12.46875 7.3125 -12.46875 C 8.550781 -12.46875 9.550781 -12.082031 10.3125 -11.3125 C 11.082031 -10.550781 11.46875 -9.382812 11.46875 -7.8125 L 11.46875 0 L 9.578125 0 L 9.578125 -7.6875 C 9.578125 -8.65625 9.328125 -9.410156 8.828125 -9.953125 C 8.328125 -10.492188 7.640625 -10.765625 6.765625 -10.765625 C 5.859375 -10.765625 5.109375 -10.472656 4.515625 -9.890625 C 3.921875 -9.304688 3.625 -8.476562 3.625 -7.40625 Z M 3.625 -7.40625 "/></g></g></g><g fill="#000000" fill-opacity="1"><g transform="translate(963.429312, 320.696109)"><g><path d="M 6.734375 0.25 C 5.617188 0.25 4.644531 -0.0078125 3.8125 -0.53125 C 2.976562 -1.0625 2.328125 -1.800781 1.859375 -2.75 C 1.390625 -3.707031 1.15625 -4.820312 1.15625 -6.09375 C 1.15625 -7.375 1.390625 -8.488281 1.859375 -9.4375 C 2.328125 -10.394531 2.976562 -11.140625 3.8125 -11.671875 C 4.644531 -12.203125 5.617188 -12.46875 6.734375 -12.46875 C 7.835938 -12.46875 8.804688 -12.203125 9.640625 -11.671875 C 10.484375 -11.140625 11.140625 -10.394531 11.609375 -9.4375 C 12.078125 -8.488281 12.3125 -7.375 12.3125 -6.09375 C 12.3125 -4.820312 12.078125 -3.707031 11.609375 -2.75 C 11.140625 -1.800781 10.484375 -1.0625 9.640625 -0.53125 C 8.804688 -0.0078125 7.835938 0.25 6.734375 0.25 Z M 6.734375 -1.4375 C 7.578125 -1.4375 8.269531 -1.648438 8.8125 -2.078125 C 9.351562 -2.515625 9.753906 -3.085938 10.015625 -3.796875 C 10.285156 -4.503906 10.421875 -5.269531 10.421875 -6.09375 C 10.421875 -6.914062 10.285156 -7.679688 10.015625 -8.390625 C 9.753906 -9.097656 9.351562 -9.671875 8.8125 -10.109375 C 8.269531 -10.546875 7.578125 -10.765625 6.734375 -10.765625 C 5.890625 -10.765625 5.191406 -10.546875 4.640625 -10.109375 C 4.097656 -9.671875 3.695312 -9.097656 3.4375 -8.390625 C 3.175781 -7.679688 3.046875 -6.914062 3.046875 -6.09375 C 3.046875 -5.269531 3.175781 -4.503906 3.4375 -3.796875 C 3.695312 -3.085938 4.097656 -2.515625 4.640625 -2.078125 C 5.191406 -1.648438 5.890625 -1.4375 6.734375 -1.4375 Z M 6.734375 -1.4375 "/></g></g></g><g clip-path="url(#id2)"><path fill="#000000" d="M 688.582031 374.15625 L 688.589844 374.15625 Z M 665.078125 347.992188 C 664.785156 347.992188 664.507812 348.125 664.207031 348.390625 C 664.171875 348.421875 663.746094 348.828125 663.460938 349.097656 L 663.203125 349.34375 C 661.757812 350.699219 661.101562 353.140625 661.535156 355.566406 C 661.675781 356.351562 661.898438 357.160156 662.203125 357.980469 C 663.734375 362.105469 666.640625 365.695312 668.808594 367.980469 C 670.96875 370.28125 674.386719 373.386719 678.410156 375.140625 C 679.207031 375.488281 680.003906 375.757812 680.777344 375.9375 C 683.167969 376.5 685.632812 375.972656 687.058594 374.597656 L 687.378906 374.292969 C 687.648438 374.035156 688.007812 373.691406 688.066406 373.636719 C 688.945312 372.730469 688.5 371.96875 686.726562 370.15625 L 686.28125 369.699219 C 685.148438 368.523438 683.257812 366.550781 681.65625 366.742188 C 681.226562 366.792969 680.773438 367.113281 680.292969 367.449219 C 679.8125 367.785156 679.316406 368.132812 678.71875 368.320312 C 677.121094 368.828125 675.5 368.496094 674.152344 367.382812 C 673.351562 366.71875 672.535156 365.941406 671.789062 365.136719 C 671.042969 364.363281 670.3125 363.5 669.695312 362.660156 C 668.65625 361.25 668.410156 359.609375 669.003906 358.035156 C 669.222656 357.445312 669.597656 356.96875 669.957031 356.503906 C 670.316406 356.042969 670.65625 355.605469 670.730469 355.175781 C 671.003906 353.582031 669.148438 351.582031 668.039062 350.386719 L 667.605469 349.914062 C 666.429688 348.625 665.71875 347.992188 665.078125 347.992188 Z M 682.703125 377.621094 C 681.902344 377.621094 681.132812 377.523438 680.445312 377.359375 C 679.585938 377.160156 678.707031 376.863281 677.828125 376.480469 C 673.578125 374.625 670.003906 371.382812 667.753906 368.984375 C 665.492188 366.605469 662.453125 362.847656 660.835938 358.488281 C 660.503906 357.589844 660.253906 356.691406 660.101562 355.824219 C 659.691406 353.515625 660.027344 350.320312 662.207031 348.277344 L 662.460938 348.039062 C 662.761719 347.75 663.226562 347.308594 663.246094 347.292969 C 665.433594 345.363281 667.386719 347.507812 668.679688 348.925781 L 669.105469 349.390625 C 670.398438 350.78125 672.5625 353.113281 672.167969 355.421875 C 672.03125 356.214844 671.539062 356.847656 671.105469 357.40625 C 670.796875 357.796875 670.507812 358.167969 670.367188 358.546875 C 669.949219 359.660156 670.121094 360.78125 670.867188 361.792969 C 671.445312 362.582031 672.132812 363.390625 672.847656 364.128906 C 673.558594 364.902344 674.328125 365.632812 675.078125 366.253906 C 676.046875 367.054688 677.152344 367.285156 678.28125 366.929688 C 678.664062 366.804688 679.050781 366.535156 679.460938 366.25 C 680.035156 365.84375 680.691406 365.386719 681.488281 365.292969 C 683.804688 365.011719 686.011719 367.3125 687.328125 368.683594 L 687.765625 369.132812 C 689.109375 370.503906 691.136719 372.574219 689.101562 374.664062 C 689.070312 374.695312 688.675781 375.070312 688.378906 375.355469 L 688.066406 375.652344 C 686.566406 377.101562 684.554688 377.621094 682.703125 377.621094 " fill-opacity="1" fill-rule="nonzero"/></g><path fill="#000000" d="M 683.9375 362.398438 C 683.554688 362.398438 683.234375 362.101562 683.210938 361.710938 C 683.09375 359.746094 682.289062 357.875 680.941406 356.445312 C 679.589844 355.015625 677.769531 354.109375 675.820312 353.886719 C 675.421875 353.839844 675.132812 353.480469 675.179688 353.078125 C 675.222656 352.675781 675.585938 352.390625 675.984375 352.433594 C 678.273438 352.695312 680.410156 353.761719 681.996094 355.441406 C 683.582031 357.117188 684.53125 359.316406 684.664062 361.625 C 684.6875 362.03125 684.382812 362.375 683.980469 362.398438 C 683.96875 362.398438 683.953125 362.398438 683.9375 362.398438 " fill-opacity="1" fill-rule="nonzero"/><path fill="#000000" d="M 689.386719 363.226562 C 689.003906 363.226562 688.683594 362.925781 688.660156 362.539062 C 688.449219 358.980469 686.988281 355.597656 684.546875 353.011719 C 682.109375 350.429688 678.820312 348.785156 675.289062 348.382812 C 674.890625 348.339844 674.601562 347.976562 674.648438 347.574219 C 674.691406 347.175781 675.054688 346.882812 675.453125 346.929688 C 679.324219 347.371094 682.929688 349.171875 685.605469 352.007812 C 688.28125 354.839844 689.882812 358.550781 690.113281 362.453125 C 690.136719 362.855469 689.832031 363.203125 689.429688 363.226562 C 689.414062 363.226562 689.402344 363.226562 689.386719 363.226562 " fill-opacity="1" fill-rule="nonzero"/><g fill="#000000" fill-opacity="1"><g transform="translate(707.241883, 370.265366)"><g><path d="M 6.34375 -1.3125 L 6.34375 -5.546875 L 2.109375 -5.546875 L 2.109375 -7.34375 L 6.34375 -7.34375 L 6.34375 -11.5625 L 8.140625 -11.5625 L 8.140625 -7.34375 L 12.375 -7.34375 L 12.375 -5.546875 L 8.140625 -5.546875 L 8.140625 -1.3125 Z M 6.34375 -1.3125 "/></g></g></g><g fill="#000000" fill-opacity="1"><g transform="translate(721.725524, 370.265366)"><g><path d="M 1.3125 -3.359375 L 1.3125 -5 L 8.53125 -16.40625 L 10.921875 -16.40625 L 10.921875 -5.125 L 13.171875 -5.125 L 13.171875 -3.359375 L 10.921875 -3.359375 L 10.921875 0 L 9.03125 0 L 9.03125 -3.359375 Z M 9.03125 -5.125 L 9.03125 -13.875 L 8.90625 -13.875 L 3.46875 -5.25 L 3.46875 -5.125 Z M 9.03125 -5.125 "/></g></g></g><g fill="#000000" fill-opacity="1"><g transform="translate(736.209166, 370.265366)"><g><path d="M 2.21875 0 L 9.546875 -14.515625 L 9.546875 -14.640625 L 1.09375 -14.640625 L 1.09375 -16.40625 L 11.609375 -16.40625 L 11.609375 -14.546875 L 4.296875 0 Z M 2.21875 0 "/></g></g></g><g fill="#000000" fill-opacity="1"><g transform="translate(749.090635, 370.265366)"><g/></g></g><g fill="#000000" fill-opacity="1"><g transform="translate(755.435239, 370.265366)"><g><path d="M 6.921875 -16.671875 C 7.597656 -16.660156 8.269531 -16.53125 8.9375 -16.28125 C 9.613281 -16.03125 10.226562 -15.613281 10.78125 -15.03125 C 11.34375 -14.445312 11.789062 -13.65625 12.125 -12.65625 C 12.457031 -11.65625 12.625 -10.394531 12.625 -8.875 C 12.625 -5.957031 12.09375 -3.710938 11.03125 -2.140625 C 9.96875 -0.566406 8.515625 0.21875 6.671875 0.21875 C 5.285156 0.21875 4.132812 -0.179688 3.21875 -0.984375 C 2.3125 -1.785156 1.765625 -2.835938 1.578125 -4.140625 L 3.53125 -4.140625 C 3.707031 -3.378906 4.054688 -2.753906 4.578125 -2.265625 C 5.109375 -1.773438 5.804688 -1.53125 6.671875 -1.53125 C 7.929688 -1.53125 8.925781 -2.082031 9.65625 -3.1875 C 10.394531 -4.300781 10.765625 -5.867188 10.765625 -7.890625 L 10.640625 -7.890625 C 10.191406 -7.210938 9.617188 -6.675781 8.921875 -6.28125 C 8.222656 -5.894531 7.453125 -5.703125 6.609375 -5.703125 C 5.660156 -5.703125 4.796875 -5.9375 4.015625 -6.40625 C 3.234375 -6.875 2.609375 -7.515625 2.140625 -8.328125 C 1.671875 -9.148438 1.4375 -10.09375 1.4375 -11.15625 C 1.4375 -12.164062 1.660156 -13.085938 2.109375 -13.921875 C 2.566406 -14.765625 3.203125 -15.4375 4.015625 -15.9375 C 4.835938 -16.4375 5.804688 -16.679688 6.921875 -16.671875 Z M 6.921875 -14.90625 C 6.242188 -14.90625 5.632812 -14.734375 5.09375 -14.390625 C 4.5625 -14.054688 4.140625 -13.601562 3.828125 -13.03125 C 3.515625 -12.46875 3.359375 -11.84375 3.359375 -11.15625 C 3.359375 -10.46875 3.507812 -9.84375 3.8125 -9.28125 C 4.113281 -8.726562 4.523438 -8.285156 5.046875 -7.953125 C 5.578125 -7.628906 6.179688 -7.46875 6.859375 -7.46875 C 7.535156 -7.46875 8.144531 -7.640625 8.6875 -7.984375 C 9.238281 -8.335938 9.675781 -8.796875 10 -9.359375 C 10.320312 -9.921875 10.484375 -10.53125 10.484375 -11.1875 C 10.484375 -11.832031 10.328125 -12.4375 10.015625 -13 C 9.710938 -13.570312 9.289062 -14.03125 8.75 -14.375 C 8.21875 -14.726562 7.609375 -14.90625 6.921875 -14.90625 Z M 6.921875 -14.90625 "/></g></g></g><g fill="#000000" fill-opacity="1"><g transform="translate(769.502317, 370.265366)"><g><path d="M 6.953125 -16.40625 L 6.953125 0 L 4.96875 0 L 4.96875 -13.53125 L 4.84375 -13.53125 C 4.769531 -13.375 4.578125 -13.203125 4.265625 -13.015625 C 3.953125 -12.828125 3.550781 -12.660156 3.0625 -12.515625 C 2.570312 -12.378906 2.007812 -12.3125 1.375 -12.3125 L 1.375 -13.96875 C 2.007812 -13.96875 2.554688 -14.082031 3.015625 -14.3125 C 3.484375 -14.539062 3.875 -14.8125 4.1875 -15.125 C 4.5 -15.4375 4.738281 -15.71875 4.90625 -15.96875 C 5.070312 -16.21875 5.164062 -16.363281 5.1875 -16.40625 Z M 6.953125 -16.40625 "/></g></g></g><g fill="#000000" fill-opacity="1"><g transform="translate(779.467831, 370.265366)"><g><path d="M 6.953125 -16.40625 L 6.953125 0 L 4.96875 0 L 4.96875 -13.53125 L 4.84375 -13.53125 C 4.769531 -13.375 4.578125 -13.203125 4.265625 -13.015625 C 3.953125 -12.828125 3.550781 -12.660156 3.0625 -12.515625 C 2.570312 -12.378906 2.007812 -12.3125 1.375 -12.3125 L 1.375 -13.96875 C 2.007812 -13.96875 2.554688 -14.082031 3.015625 -14.3125 C 3.484375 -14.539062 3.875 -14.8125 4.1875 -15.125 C 4.5 -15.4375 4.738281 -15.71875 4.90625 -15.96875 C 5.070312 -16.21875 5.164062 -16.363281 5.1875 -16.40625 Z M 6.953125 -16.40625 "/></g></g></g><g fill="#000000" fill-opacity="1"><g transform="translate(789.433346, 370.265366)"><g/></g></g><g fill="#000000" fill-opacity="1"><g transform="translate(795.77795, 370.265366)"><g><path d="M 6.953125 0.21875 C 5.847656 0.21875 4.875 0.0234375 4.03125 -0.359375 C 3.195312 -0.753906 2.546875 -1.296875 2.078125 -1.984375 C 1.609375 -2.679688 1.375 -3.472656 1.375 -4.359375 C 1.375 -5.054688 1.507812 -5.695312 1.78125 -6.28125 C 2.0625 -6.875 2.441406 -7.367188 2.921875 -7.765625 C 3.410156 -8.160156 3.953125 -8.414062 4.546875 -8.53125 L 4.546875 -8.625 C 3.765625 -8.820312 3.140625 -9.257812 2.671875 -9.9375 C 2.210938 -10.625 1.984375 -11.40625 1.984375 -12.28125 C 1.984375 -13.113281 2.195312 -13.859375 2.625 -14.515625 C 3.050781 -15.171875 3.640625 -15.6875 4.390625 -16.0625 C 5.140625 -16.445312 5.992188 -16.640625 6.953125 -16.640625 C 7.898438 -16.640625 8.75 -16.445312 9.5 -16.0625 C 10.25 -15.6875 10.835938 -15.171875 11.265625 -14.515625 C 11.703125 -13.859375 11.921875 -13.113281 11.921875 -12.28125 C 11.921875 -11.40625 11.6875 -10.625 11.21875 -9.9375 C 10.75 -9.257812 10.128906 -8.820312 9.359375 -8.625 L 9.359375 -8.53125 C 9.953125 -8.414062 10.484375 -8.160156 10.953125 -7.765625 C 11.429688 -7.367188 11.8125 -6.875 12.09375 -6.28125 C 12.375 -5.695312 12.519531 -5.054688 12.53125 -4.359375 C 12.519531 -3.472656 12.28125 -2.679688 11.8125 -1.984375 C 11.34375 -1.296875 10.6875 -0.753906 9.84375 -0.359375 C 9.007812 0.0234375 8.046875 0.21875 6.953125 0.21875 Z M 6.953125 -1.53125 C 8.066406 -1.53125 8.945312 -1.796875 9.59375 -2.328125 C 10.238281 -2.859375 10.566406 -3.566406 10.578125 -4.453125 C 10.566406 -5.078125 10.40625 -5.625 10.09375 -6.09375 C 9.78125 -6.570312 9.351562 -6.945312 8.8125 -7.21875 C 8.269531 -7.488281 7.648438 -7.625 6.953125 -7.625 C 6.253906 -7.625 5.628906 -7.488281 5.078125 -7.21875 C 4.535156 -6.945312 4.109375 -6.570312 3.796875 -6.09375 C 3.484375 -5.625 3.328125 -5.078125 3.328125 -4.453125 C 3.328125 -3.566406 3.648438 -2.859375 4.296875 -2.328125 C 4.941406 -1.796875 5.828125 -1.53125 6.953125 -1.53125 Z M 6.953125 -9.328125 C 7.835938 -9.328125 8.5625 -9.582031 9.125 -10.09375 C 9.695312 -10.613281 9.988281 -11.296875 10 -12.140625 C 9.988281 -12.972656 9.703125 -13.640625 9.140625 -14.140625 C 8.585938 -14.648438 7.859375 -14.90625 6.953125 -14.90625 C 6.035156 -14.90625 5.296875 -14.648438 4.734375 -14.140625 C 4.179688 -13.640625 3.90625 -12.972656 3.90625 -12.140625 C 3.90625 -11.296875 4.1875 -10.613281 4.75 -10.09375 C 5.320312 -9.582031 6.054688 -9.328125 6.953125 -9.328125 Z M 6.953125 -9.328125 "/></g></g></g><g fill="#000000" fill-opacity="1"><g transform="translate(809.68481, 370.265366)"><g><path d="M 7.140625 0.21875 C 6.472656 0.207031 5.800781 0.0820312 5.125 -0.15625 C 4.457031 -0.40625 3.84375 -0.820312 3.28125 -1.40625 C 2.726562 -1.988281 2.28125 -2.78125 1.9375 -3.78125 C 1.601562 -4.78125 1.4375 -6.039062 1.4375 -7.5625 C 1.4375 -10.476562 1.96875 -12.722656 3.03125 -14.296875 C 4.09375 -15.878906 5.550781 -16.671875 7.40625 -16.671875 C 8.78125 -16.671875 9.921875 -16.265625 10.828125 -15.453125 C 11.742188 -14.648438 12.300781 -13.601562 12.5 -12.3125 L 10.546875 -12.3125 C 10.359375 -13.0625 10.003906 -13.679688 9.484375 -14.171875 C 8.960938 -14.660156 8.269531 -14.90625 7.40625 -14.90625 C 6.132812 -14.90625 5.132812 -14.347656 4.40625 -13.234375 C 3.675781 -12.128906 3.304688 -10.570312 3.296875 -8.5625 L 3.421875 -8.5625 C 3.878906 -9.238281 4.457031 -9.769531 5.15625 -10.15625 C 5.851562 -10.539062 6.625 -10.734375 7.46875 -10.734375 C 8.40625 -10.734375 9.265625 -10.5 10.046875 -10.03125 C 10.828125 -9.5625 11.453125 -8.914062 11.921875 -8.09375 C 12.390625 -7.28125 12.625 -6.34375 12.625 -5.28125 C 12.625 -4.269531 12.394531 -3.34375 11.9375 -2.5 C 11.488281 -1.65625 10.851562 -0.988281 10.03125 -0.5 C 9.21875 -0.0078125 8.253906 0.226562 7.140625 0.21875 Z M 7.140625 -1.53125 C 7.816406 -1.53125 8.421875 -1.695312 8.953125 -2.03125 C 9.492188 -2.375 9.921875 -2.828125 10.234375 -3.390625 C 10.546875 -3.960938 10.703125 -4.59375 10.703125 -5.28125 C 10.703125 -5.96875 10.550781 -6.585938 10.25 -7.140625 C 9.945312 -7.703125 9.53125 -8.144531 9 -8.46875 C 8.476562 -8.800781 7.882812 -8.96875 7.21875 -8.96875 C 6.53125 -8.96875 5.914062 -8.796875 5.375 -8.453125 C 4.832031 -8.109375 4.398438 -7.648438 4.078125 -7.078125 C 3.753906 -6.515625 3.59375 -5.90625 3.59375 -5.25 C 3.59375 -4.601562 3.742188 -3.992188 4.046875 -3.421875 C 4.359375 -2.859375 4.78125 -2.398438 5.3125 -2.046875 C 5.851562 -1.703125 6.460938 -1.53125 7.140625 -1.53125 Z M 7.140625 -1.53125 "/></g></g></g><g fill="#000000" fill-opacity="1"><g transform="translate(823.751887, 370.265366)"><g/></g></g><g fill="#000000" fill-opacity="1"><g transform="translate(830.096491, 370.265366)"><g><path d="M 7.140625 0.21875 C 6.472656 0.207031 5.800781 0.0820312 5.125 -0.15625 C 4.457031 -0.40625 3.84375 -0.820312 3.28125 -1.40625 C 2.726562 -1.988281 2.28125 -2.78125 1.9375 -3.78125 C 1.601562 -4.78125 1.4375 -6.039062 1.4375 -7.5625 C 1.4375 -10.476562 1.96875 -12.722656 3.03125 -14.296875 C 4.09375 -15.878906 5.550781 -16.671875 7.40625 -16.671875 C 8.78125 -16.671875 9.921875 -16.265625 10.828125 -15.453125 C 11.742188 -14.648438 12.300781 -13.601562 12.5 -12.3125 L 10.546875 -12.3125 C 10.359375 -13.0625 10.003906 -13.679688 9.484375 -14.171875 C 8.960938 -14.660156 8.269531 -14.90625 7.40625 -14.90625 C 6.132812 -14.90625 5.132812 -14.347656 4.40625 -13.234375 C 3.675781 -12.128906 3.304688 -10.570312 3.296875 -8.5625 L 3.421875 -8.5625 C 3.878906 -9.238281 4.457031 -9.769531 5.15625 -10.15625 C 5.851562 -10.539062 6.625 -10.734375 7.46875 -10.734375 C 8.40625 -10.734375 9.265625 -10.5 10.046875 -10.03125 C 10.828125 -9.5625 11.453125 -8.914062 11.921875 -8.09375 C 12.390625 -7.28125 12.625 -6.34375 12.625 -5.28125 C 12.625 -4.269531 12.394531 -3.34375 11.9375 -2.5 C 11.488281 -1.65625 10.851562 -0.988281 10.03125 -0.5 C 9.21875 -0.0078125 8.253906 0.226562 7.140625 0.21875 Z M 7.140625 -1.53125 C 7.816406 -1.53125 8.421875 -1.695312 8.953125 -2.03125 C 9.492188 -2.375 9.921875 -2.828125 10.234375 -3.390625 C 10.546875 -3.960938 10.703125 -4.59375 10.703125 -5.28125 C 10.703125 -5.96875 10.550781 -6.585938 10.25 -7.140625 C 9.945312 -7.703125 9.53125 -8.144531 9 -8.46875 C 8.476562 -8.800781 7.882812 -8.96875 7.21875 -8.96875 C 6.53125 -8.96875 5.914062 -8.796875 5.375 -8.453125 C 4.832031 -8.109375 4.398438 -7.648438 4.078125 -7.078125 C 3.753906 -6.515625 3.59375 -5.90625 3.59375 -5.25 C 3.59375 -4.601562 3.742188 -3.992188 4.046875 -3.421875 C 4.359375 -2.859375 4.78125 -2.398438 5.3125 -2.046875 C 5.851562 -1.703125 6.460938 -1.53125 7.140625 -1.53125 Z M 7.140625 -1.53125 "/></g></g></g><g fill="#000000" fill-opacity="1"><g transform="translate(844.163569, 370.265366)"><g><path d="M 6.828125 0.21875 C 5.890625 0.21875 5.039062 0.0351562 4.28125 -0.328125 C 3.53125 -0.703125 2.925781 -1.21875 2.46875 -1.875 C 2.019531 -2.53125 1.773438 -3.273438 1.734375 -4.109375 L 3.65625 -4.109375 C 3.726562 -3.359375 4.0625 -2.738281 4.65625 -2.25 C 5.257812 -1.769531 5.984375 -1.53125 6.828125 -1.53125 C 7.503906 -1.53125 8.101562 -1.6875 8.625 -2 C 9.15625 -2.320312 9.566406 -2.757812 9.859375 -3.3125 C 10.160156 -3.863281 10.3125 -4.488281 10.3125 -5.1875 C 10.3125 -5.90625 10.15625 -6.546875 9.84375 -7.109375 C 9.53125 -7.671875 9.101562 -8.113281 8.5625 -8.4375 C 8.019531 -8.769531 7.398438 -8.9375 6.703125 -8.9375 C 6.191406 -8.945312 5.671875 -8.875 5.140625 -8.71875 C 4.617188 -8.5625 4.1875 -8.359375 3.84375 -8.109375 L 1.984375 -8.328125 L 2.984375 -16.40625 L 11.5 -16.40625 L 11.5 -14.640625 L 4.640625 -14.640625 L 4.0625 -9.8125 L 4.171875 -9.8125 C 4.503906 -10.070312 4.921875 -10.289062 5.421875 -10.46875 C 5.929688 -10.644531 6.460938 -10.734375 7.015625 -10.734375 C 8.023438 -10.734375 8.921875 -10.492188 9.703125 -10.015625 C 10.492188 -9.535156 11.113281 -8.878906 11.5625 -8.046875 C 12.019531 -7.222656 12.25 -6.28125 12.25 -5.21875 C 12.25 -4.175781 12.015625 -3.242188 11.546875 -2.421875 C 11.078125 -1.597656 10.429688 -0.953125 9.609375 -0.484375 C 8.796875 -0.015625 7.867188 0.21875 6.828125 0.21875 Z M 6.828125 0.21875 "/></g></g></g><g fill="#000000" fill-opacity="1"><g transform="translate(857.878168, 370.265366)"><g><path d="M 7.046875 0.21875 C 5.234375 0.21875 3.828125 -0.515625 2.828125 -1.984375 C 1.835938 -3.453125 1.34375 -5.523438 1.34375 -8.203125 C 1.34375 -10.859375 1.84375 -12.925781 2.84375 -14.40625 C 3.851562 -15.894531 5.253906 -16.640625 7.046875 -16.640625 C 8.847656 -16.640625 10.25 -15.894531 11.25 -14.40625 C 12.25 -12.925781 12.75 -10.859375 12.75 -8.203125 C 12.75 -5.523438 12.25 -3.453125 11.25 -1.984375 C 10.257812 -0.515625 8.859375 0.21875 7.046875 0.21875 Z M 7.046875 -1.53125 C 8.242188 -1.53125 9.171875 -2.109375 9.828125 -3.265625 C 10.492188 -4.421875 10.828125 -6.066406 10.828125 -8.203125 C 10.828125 -10.335938 10.492188 -11.988281 9.828125 -13.15625 C 9.160156 -14.320312 8.234375 -14.90625 7.046875 -14.90625 C 5.859375 -14.90625 4.929688 -14.320312 4.265625 -13.15625 C 3.597656 -11.988281 3.265625 -10.335938 3.265625 -8.203125 C 3.265625 -6.066406 3.597656 -4.421875 4.265625 -3.265625 C 4.929688 -2.109375 5.859375 -1.53125 7.046875 -1.53125 Z M 7.046875 -1.53125 "/></g></g></g><g fill="#000000" fill-opacity="1"><g transform="translate(659.667621, 229.939069)"><g><path d="M 2.90625 0 L 2.90625 -24.03125 L 17.328125 -24.03125 L 17.328125 -21.453125 L 5.828125 -21.453125 L 5.828125 -13.328125 L 16.234375 -13.328125 L 16.234375 -10.75 L 5.828125 -10.75 L 5.828125 0 Z M 2.90625 0 "/></g></g></g><g fill="#000000" fill-opacity="1"><g transform="translate(676.800278, 229.939069)"><g><path d="M 2.53125 0 L 2.53125 -18.03125 L 5.203125 -18.03125 L 5.203125 -15.296875 L 5.390625 -15.296875 C 5.710938 -16.191406 6.304688 -16.914062 7.171875 -17.46875 C 8.035156 -18.03125 9.007812 -18.3125 10.09375 -18.3125 C 10.59375 -18.3125 11.03125 -18.25 11.40625 -18.125 C 11.78125 -18.007812 12.109375 -17.851562 12.390625 -17.65625 L 11.453125 -15.296875 C 11.253906 -15.398438 11.023438 -15.476562 10.765625 -15.53125 C 10.503906 -15.59375 10.203125 -15.625 9.859375 -15.625 C 8.546875 -15.625 7.457031 -15.222656 6.59375 -14.421875 C 5.726562 -13.617188 5.296875 -12.613281 5.296875 -11.40625 L 5.296875 0 Z M 2.53125 0 "/></g></g></g><g fill="#000000" fill-opacity="1"><g transform="translate(687.222646, 229.939069)"><g><path d="M 9.859375 0.375 C 8.234375 0.375 6.804688 -0.0078125 5.578125 -0.78125 C 4.359375 -1.5625 3.40625 -2.644531 2.71875 -4.03125 C 2.03125 -5.425781 1.6875 -7.054688 1.6875 -8.921875 C 1.6875 -10.796875 2.03125 -12.429688 2.71875 -13.828125 C 3.40625 -15.234375 4.359375 -16.320312 5.578125 -17.09375 C 6.804688 -17.875 8.234375 -18.265625 9.859375 -18.265625 C 11.484375 -18.265625 12.90625 -17.875 14.125 -17.09375 C 15.351562 -16.320312 16.3125 -15.234375 17 -13.828125 C 17.6875 -12.429688 18.03125 -10.796875 18.03125 -8.921875 C 18.03125 -7.054688 17.6875 -5.425781 17 -4.03125 C 16.3125 -2.644531 15.351562 -1.5625 14.125 -0.78125 C 12.90625 -0.0078125 11.484375 0.375 9.859375 0.375 Z M 9.859375 -2.109375 C 11.097656 -2.109375 12.113281 -2.425781 12.90625 -3.0625 C 13.707031 -3.695312 14.296875 -4.53125 14.671875 -5.5625 C 15.054688 -6.59375 15.25 -7.710938 15.25 -8.921875 C 15.25 -10.117188 15.054688 -11.238281 14.671875 -12.28125 C 14.296875 -13.320312 13.707031 -14.160156 12.90625 -14.796875 C 12.113281 -15.441406 11.097656 -15.765625 9.859375 -15.765625 C 8.617188 -15.765625 7.597656 -15.441406 6.796875 -14.796875 C 6.003906 -14.160156 5.414062 -13.320312 5.03125 -12.28125 C 4.644531 -11.238281 4.453125 -10.117188 4.453125 -8.921875 C 4.453125 -7.710938 4.644531 -6.59375 5.03125 -5.5625 C 5.414062 -4.53125 6.003906 -3.695312 6.796875 -3.0625 C 7.597656 -2.425781 8.617188 -2.109375 9.859375 -2.109375 Z M 9.859375 -2.109375 "/></g></g></g><g fill="#000000" fill-opacity="1"><g transform="translate(704.683783, 229.939069)"><g><path d="M 5.296875 -10.84375 L 5.296875 0 L 2.53125 0 L 2.53125 -18.03125 L 5.203125 -18.03125 L 5.203125 -15.203125 L 5.4375 -15.203125 C 5.863281 -16.117188 6.503906 -16.859375 7.359375 -17.421875 C 8.222656 -17.984375 9.335938 -18.265625 10.703125 -18.265625 C 12.523438 -18.265625 14 -17.703125 15.125 -16.578125 C 16.25 -15.460938 16.8125 -13.753906 16.8125 -11.453125 L 16.8125 0 L 14.03125 0 L 14.03125 -11.265625 C 14.03125 -12.679688 13.660156 -13.785156 12.921875 -14.578125 C 12.191406 -15.367188 11.1875 -15.765625 9.90625 -15.765625 C 8.582031 -15.765625 7.484375 -15.335938 6.609375 -14.484375 C 5.734375 -13.628906 5.296875 -12.414062 5.296875 -10.84375 Z M 5.296875 -10.84375 "/></g></g></g><g fill="#000000" fill-opacity="1"><g transform="translate(721.76952, 229.939069)"><g><path d="M 10.375 -18.03125 L 10.375 -15.671875 L 6.53125 -15.671875 L 6.53125 -5.15625 C 6.53125 -4.375 6.644531 -3.789062 6.875 -3.40625 C 7.101562 -3.019531 7.398438 -2.757812 7.765625 -2.625 C 8.128906 -2.5 8.515625 -2.4375 8.921875 -2.4375 C 9.222656 -2.4375 9.472656 -2.453125 9.671875 -2.484375 C 9.867188 -2.523438 10.023438 -2.554688 10.140625 -2.578125 L 10.703125 -0.09375 C 10.515625 -0.0195312 10.25 0.0507812 9.90625 0.125 C 9.570312 0.195312 9.148438 0.234375 8.640625 0.234375 C 7.859375 0.234375 7.09375 0.0664062 6.34375 -0.265625 C 5.59375 -0.609375 4.972656 -1.125 4.484375 -1.8125 C 3.992188 -2.5 3.75 -3.363281 3.75 -4.40625 L 3.75 -15.671875 L 1.03125 -15.671875 L 1.03125 -18.03125 L 3.75 -18.03125 L 3.75 -22.34375 L 6.53125 -22.34375 L 6.53125 -18.03125 Z M 10.375 -18.03125 "/></g></g></g><g fill="#000000" fill-opacity="1"><g transform="translate(731.53494, 229.939069)"><g><path d="M 10.09375 0.375 C 8.351562 0.375 6.851562 -0.0078125 5.59375 -0.78125 C 4.34375 -1.550781 3.378906 -2.628906 2.703125 -4.015625 C 2.023438 -5.410156 1.6875 -7.03125 1.6875 -8.875 C 1.6875 -10.71875 2.023438 -12.34375 2.703125 -13.75 C 3.378906 -15.164062 4.328125 -16.269531 5.546875 -17.0625 C 6.765625 -17.863281 8.1875 -18.265625 9.8125 -18.265625 C 10.75 -18.265625 11.675781 -18.109375 12.59375 -17.796875 C 13.507812 -17.484375 14.34375 -16.972656 15.09375 -16.265625 C 15.84375 -15.566406 16.441406 -14.640625 16.890625 -13.484375 C 17.335938 -12.335938 17.5625 -10.925781 17.5625 -9.25 L 17.5625 -8.078125 L 4.46875 -8.078125 C 4.53125 -6.148438 5.078125 -4.671875 6.109375 -3.640625 C 7.140625 -2.617188 8.46875 -2.109375 10.09375 -2.109375 C 11.175781 -2.109375 12.109375 -2.34375 12.890625 -2.8125 C 13.679688 -3.28125 14.25 -3.984375 14.59375 -4.921875 L 17.28125 -4.171875 C 16.851562 -2.816406 16.003906 -1.71875 14.734375 -0.875 C 13.472656 -0.0390625 11.925781 0.375 10.09375 0.375 Z M 4.46875 -10.46875 L 14.734375 -10.46875 C 14.734375 -11.988281 14.285156 -13.25 13.390625 -14.25 C 12.503906 -15.257812 11.3125 -15.765625 9.8125 -15.765625 C 8.75 -15.765625 7.832031 -15.519531 7.0625 -15.03125 C 6.289062 -14.539062 5.679688 -13.890625 5.234375 -13.078125 C 4.785156 -12.265625 4.53125 -11.394531 4.46875 -10.46875 Z M 4.46875 -10.46875 "/></g></g></g><g fill="#000000" fill-opacity="1"><g transform="translate(748.526824, 229.939069)"><g><path d="M 5.296875 -10.84375 L 5.296875 0 L 2.53125 0 L 2.53125 -18.03125 L 5.203125 -18.03125 L 5.203125 -15.203125 L 5.4375 -15.203125 C 5.863281 -16.117188 6.503906 -16.859375 7.359375 -17.421875 C 8.222656 -17.984375 9.335938 -18.265625 10.703125 -18.265625 C 12.523438 -18.265625 14 -17.703125 15.125 -16.578125 C 16.25 -15.460938 16.8125 -13.753906 16.8125 -11.453125 L 16.8125 0 L 14.03125 0 L 14.03125 -11.265625 C 14.03125 -12.679688 13.660156 -13.785156 12.921875 -14.578125 C 12.191406 -15.367188 11.1875 -15.765625 9.90625 -15.765625 C 8.582031 -15.765625 7.484375 -15.335938 6.609375 -14.484375 C 5.734375 -13.628906 5.296875 -12.414062 5.296875 -10.84375 Z M 5.296875 -10.84375 "/></g></g></g><g fill="#000000" fill-opacity="1"><g transform="translate(765.612555, 229.939069)"><g><path d="M 9.34375 0.375 C 7.84375 0.375 6.515625 -0.00390625 5.359375 -0.765625 C 4.210938 -1.523438 3.3125 -2.601562 2.65625 -4 C 2.007812 -5.40625 1.6875 -7.0625 1.6875 -8.96875 C 1.6875 -10.863281 2.007812 -12.503906 2.65625 -13.890625 C 3.3125 -15.285156 4.21875 -16.363281 5.375 -17.125 C 6.53125 -17.882812 7.867188 -18.265625 9.390625 -18.265625 C 10.566406 -18.265625 11.492188 -18.066406 12.171875 -17.671875 C 12.859375 -17.285156 13.382812 -16.847656 13.75 -16.359375 C 14.113281 -15.867188 14.394531 -15.46875 14.59375 -15.15625 L 14.828125 -15.15625 L 14.828125 -24.03125 L 17.609375 -24.03125 L 17.609375 0 L 14.921875 0 L 14.921875 -2.765625 L 14.59375 -2.765625 C 14.394531 -2.441406 14.109375 -2.03125 13.734375 -1.53125 C 13.359375 -1.03125 12.820312 -0.585938 12.125 -0.203125 C 11.425781 0.179688 10.5 0.375 9.34375 0.375 Z M 9.71875 -2.109375 C 11.382812 -2.109375 12.660156 -2.75 13.546875 -4.03125 C 14.429688 -5.3125 14.875 -6.972656 14.875 -9.015625 C 14.875 -11.035156 14.4375 -12.664062 13.5625 -13.90625 C 12.6875 -15.144531 11.40625 -15.765625 9.71875 -15.765625 C 8.539062 -15.765625 7.5625 -15.46875 6.78125 -14.875 C 6.007812 -14.28125 5.425781 -13.46875 5.03125 -12.4375 C 4.644531 -11.414062 4.453125 -10.273438 4.453125 -9.015625 C 4.453125 -7.734375 4.648438 -6.566406 5.046875 -5.515625 C 5.441406 -4.472656 6.03125 -3.644531 6.8125 -3.03125 C 7.59375 -2.414062 8.5625 -2.109375 9.71875 -2.109375 Z M 9.71875 -2.109375 "/></g></g></g><g fill="#000000" fill-opacity="1"><g transform="translate(783.871419, 229.939069)"><g><path d="M 12.859375 -11.59375 L 12.859375 -9.015625 L 2.34375 -9.015625 L 2.34375 -11.59375 Z M 12.859375 -11.59375 "/></g></g></g><g fill="#000000" fill-opacity="1"><g transform="translate(796.827756, 229.939069)"><g><path d="M 10.328125 0 L 2.90625 0 L 2.90625 -24.03125 L 10.65625 -24.03125 C 12.988281 -24.03125 14.984375 -23.550781 16.640625 -22.59375 C 18.296875 -21.632812 19.566406 -20.257812 20.453125 -18.46875 C 21.335938 -16.6875 21.78125 -14.550781 21.78125 -12.0625 C 21.78125 -9.5625 21.332031 -7.410156 20.4375 -5.609375 C 19.550781 -3.804688 18.253906 -2.421875 16.546875 -1.453125 C 14.835938 -0.484375 12.765625 0 10.328125 0 Z M 5.828125 -2.578125 L 10.140625 -2.578125 C 13.117188 -2.578125 15.332031 -3.421875 16.78125 -5.109375 C 18.238281 -6.804688 18.96875 -9.125 18.96875 -12.0625 C 18.96875 -14.96875 18.253906 -17.257812 16.828125 -18.9375 C 15.398438 -20.613281 13.28125 -21.453125 10.46875 -21.453125 L 5.828125 -21.453125 Z M 5.828125 -2.578125 "/></g></g></g><g fill="#000000" fill-opacity="1"><g transform="translate(818.324452, 229.939069)"><g><path d="M 10.09375 0.375 C 8.351562 0.375 6.851562 -0.0078125 5.59375 -0.78125 C 4.34375 -1.550781 3.378906 -2.628906 2.703125 -4.015625 C 2.023438 -5.410156 1.6875 -7.03125 1.6875 -8.875 C 1.6875 -10.71875 2.023438 -12.34375 2.703125 -13.75 C 3.378906 -15.164062 4.328125 -16.269531 5.546875 -17.0625 C 6.765625 -17.863281 8.1875 -18.265625 9.8125 -18.265625 C 10.75 -18.265625 11.675781 -18.109375 12.59375 -17.796875 C 13.507812 -17.484375 14.34375 -16.972656 15.09375 -16.265625 C 15.84375 -15.566406 16.441406 -14.640625 16.890625 -13.484375 C 17.335938 -12.335938 17.5625 -10.925781 17.5625 -9.25 L 17.5625 -8.078125 L 4.46875 -8.078125 C 4.53125 -6.148438 5.078125 -4.671875 6.109375 -3.640625 C 7.140625 -2.617188 8.46875 -2.109375 10.09375 -2.109375 C 11.175781 -2.109375 12.109375 -2.34375 12.890625 -2.8125 C 13.679688 -3.28125 14.25 -3.984375 14.59375 -4.921875 L 17.28125 -4.171875 C 16.851562 -2.816406 16.003906 -1.71875 14.734375 -0.875 C 13.472656 -0.0390625 11.925781 0.375 10.09375 0.375 Z M 4.46875 -10.46875 L 14.734375 -10.46875 C 14.734375 -11.988281 14.285156 -13.25 13.390625 -14.25 C 12.503906 -15.257812 11.3125 -15.765625 9.8125 -15.765625 C 8.75 -15.765625 7.832031 -15.519531 7.0625 -15.03125 C 6.289062 -14.539062 5.679688 -13.890625 5.234375 -13.078125 C 4.785156 -12.265625 4.53125 -11.394531 4.46875 -10.46875 Z M 4.46875 -10.46875 "/></g></g></g><g fill="#000000" fill-opacity="1"><g transform="translate(835.316341, 229.939069)"><g><path d="M 17.28125 -18.03125 L 10.609375 0 L 7.796875 0 L 1.125 -18.03125 L 4.125 -18.03125 L 9.109375 -3.65625 L 9.296875 -3.65625 L 14.265625 -18.03125 Z M 17.28125 -18.03125 "/></g></g></g><g fill="#000000" fill-opacity="1"><g transform="translate(851.463565, 229.939069)"><g><path d="M 10.09375 0.375 C 8.351562 0.375 6.851562 -0.0078125 5.59375 -0.78125 C 4.34375 -1.550781 3.378906 -2.628906 2.703125 -4.015625 C 2.023438 -5.410156 1.6875 -7.03125 1.6875 -8.875 C 1.6875 -10.71875 2.023438 -12.34375 2.703125 -13.75 C 3.378906 -15.164062 4.328125 -16.269531 5.546875 -17.0625 C 6.765625 -17.863281 8.1875 -18.265625 9.8125 -18.265625 C 10.75 -18.265625 11.675781 -18.109375 12.59375 -17.796875 C 13.507812 -17.484375 14.34375 -16.972656 15.09375 -16.265625 C 15.84375 -15.566406 16.441406 -14.640625 16.890625 -13.484375 C 17.335938 -12.335938 17.5625 -10.925781 17.5625 -9.25 L 17.5625 -8.078125 L 4.46875 -8.078125 C 4.53125 -6.148438 5.078125 -4.671875 6.109375 -3.640625 C 7.140625 -2.617188 8.46875 -2.109375 10.09375 -2.109375 C 11.175781 -2.109375 12.109375 -2.34375 12.890625 -2.8125 C 13.679688 -3.28125 14.25 -3.984375 14.59375 -4.921875 L 17.28125 -4.171875 C 16.851562 -2.816406 16.003906 -1.71875 14.734375 -0.875 C 13.472656 -0.0390625 11.925781 0.375 10.09375 0.375 Z M 4.46875 -10.46875 L 14.734375 -10.46875 C 14.734375 -11.988281 14.285156 -13.25 13.390625 -14.25 C 12.503906 -15.257812 11.3125 -15.765625 9.8125 -15.765625 C 8.75 -15.765625 7.832031 -15.519531 7.0625 -15.03125 C 6.289062 -14.539062 5.679688 -13.890625 5.234375 -13.078125 C 4.785156 -12.265625 4.53125 -11.394531 4.46875 -10.46875 Z M 4.46875 -10.46875 "/></g></g></g><g fill="#000000" fill-opacity="1"><g transform="translate(868.455454, 229.939069)"><g><path d="M 5.296875 -24.03125 L 5.296875 0 L 2.53125 0 L 2.53125 -24.03125 Z M 5.296875 -24.03125 "/></g></g></g><g fill="#000000" fill-opacity="1"><g transform="translate(874.044542, 229.939069)"><g><path d="M 9.859375 0.375 C 8.234375 0.375 6.804688 -0.0078125 5.578125 -0.78125 C 4.359375 -1.5625 3.40625 -2.644531 2.71875 -4.03125 C 2.03125 -5.425781 1.6875 -7.054688 1.6875 -8.921875 C 1.6875 -10.796875 2.03125 -12.429688 2.71875 -13.828125 C 3.40625 -15.234375 4.359375 -16.320312 5.578125 -17.09375 C 6.804688 -17.875 8.234375 -18.265625 9.859375 -18.265625 C 11.484375 -18.265625 12.90625 -17.875 14.125 -17.09375 C 15.351562 -16.320312 16.3125 -15.234375 17 -13.828125 C 17.6875 -12.429688 18.03125 -10.796875 18.03125 -8.921875 C 18.03125 -7.054688 17.6875 -5.425781 17 -4.03125 C 16.3125 -2.644531 15.351562 -1.5625 14.125 -0.78125 C 12.90625 -0.0078125 11.484375 0.375 9.859375 0.375 Z M 9.859375 -2.109375 C 11.097656 -2.109375 12.113281 -2.425781 12.90625 -3.0625 C 13.707031 -3.695312 14.296875 -4.53125 14.671875 -5.5625 C 15.054688 -6.59375 15.25 -7.710938 15.25 -8.921875 C 15.25 -10.117188 15.054688 -11.238281 14.671875 -12.28125 C 14.296875 -13.320312 13.707031 -14.160156 12.90625 -14.796875 C 12.113281 -15.441406 11.097656 -15.765625 9.859375 -15.765625 C 8.617188 -15.765625 7.597656 -15.441406 6.796875 -14.796875 C 6.003906 -14.160156 5.414062 -13.320312 5.03125 -12.28125 C 4.644531 -11.238281 4.453125 -10.117188 4.453125 -8.921875 C 4.453125 -7.710938 4.644531 -6.59375 5.03125 -5.5625 C 5.414062 -4.53125 6.003906 -3.695312 6.796875 -3.0625 C 7.597656 -2.425781 8.617188 -2.109375 9.859375 -2.109375 Z M 9.859375 -2.109375 "/></g></g></g><g fill="#000000" fill-opacity="1"><g transform="translate(891.505685, 229.939069)"><g><path d="M 2.53125 6.765625 L 2.53125 -18.03125 L 5.203125 -18.03125 L 5.203125 -15.15625 L 5.546875 -15.15625 C 5.742188 -15.46875 6.023438 -15.867188 6.390625 -16.359375 C 6.753906 -16.847656 7.273438 -17.285156 7.953125 -17.671875 C 8.640625 -18.066406 9.570312 -18.265625 10.75 -18.265625 C 12.269531 -18.265625 13.609375 -17.882812 14.765625 -17.125 C 15.921875 -16.363281 16.820312 -15.285156 17.46875 -13.890625 C 18.125 -12.503906 18.453125 -10.863281 18.453125 -8.96875 C 18.453125 -7.0625 18.125 -5.40625 17.46875 -4 C 16.820312 -2.601562 15.921875 -1.523438 14.765625 -0.765625 C 13.617188 -0.00390625 12.296875 0.375 10.796875 0.375 C 9.640625 0.375 8.710938 0.179688 8.015625 -0.203125 C 7.316406 -0.585938 6.78125 -1.03125 6.40625 -1.53125 C 6.03125 -2.03125 5.742188 -2.441406 5.546875 -2.765625 L 5.296875 -2.765625 L 5.296875 6.765625 Z M 5.25 -9.015625 C 5.25 -6.972656 5.691406 -5.3125 6.578125 -4.03125 C 7.472656 -2.75 8.753906 -2.109375 10.421875 -2.109375 C 11.578125 -2.109375 12.546875 -2.414062 13.328125 -3.03125 C 14.109375 -3.644531 14.691406 -4.472656 15.078125 -5.515625 C 15.472656 -6.566406 15.671875 -7.734375 15.671875 -9.015625 C 15.671875 -10.273438 15.476562 -11.414062 15.09375 -12.4375 C 14.707031 -13.46875 14.125 -14.28125 13.34375 -14.875 C 12.570312 -15.46875 11.597656 -15.765625 10.421875 -15.765625 C 8.734375 -15.765625 7.445312 -15.144531 6.5625 -13.90625 C 5.6875 -12.664062 5.25 -11.035156 5.25 -9.015625 Z M 5.25 -9.015625 "/></g></g></g><g fill="#000000" fill-opacity="1"><g transform="translate(909.389137, 229.939069)"><g><path d="M 10.09375 0.375 C 8.351562 0.375 6.851562 -0.0078125 5.59375 -0.78125 C 4.34375 -1.550781 3.378906 -2.628906 2.703125 -4.015625 C 2.023438 -5.410156 1.6875 -7.03125 1.6875 -8.875 C 1.6875 -10.71875 2.023438 -12.34375 2.703125 -13.75 C 3.378906 -15.164062 4.328125 -16.269531 5.546875 -17.0625 C 6.765625 -17.863281 8.1875 -18.265625 9.8125 -18.265625 C 10.75 -18.265625 11.675781 -18.109375 12.59375 -17.796875 C 13.507812 -17.484375 14.34375 -16.972656 15.09375 -16.265625 C 15.84375 -15.566406 16.441406 -14.640625 16.890625 -13.484375 C 17.335938 -12.335938 17.5625 -10.925781 17.5625 -9.25 L 17.5625 -8.078125 L 4.46875 -8.078125 C 4.53125 -6.148438 5.078125 -4.671875 6.109375 -3.640625 C 7.140625 -2.617188 8.46875 -2.109375 10.09375 -2.109375 C 11.175781 -2.109375 12.109375 -2.34375 12.890625 -2.8125 C 13.679688 -3.28125 14.25 -3.984375 14.59375 -4.921875 L 17.28125 -4.171875 C 16.851562 -2.816406 16.003906 -1.71875 14.734375 -0.875 C 13.472656 -0.0390625 11.925781 0.375 10.09375 0.375 Z M 4.46875 -10.46875 L 14.734375 -10.46875 C 14.734375 -11.988281 14.285156 -13.25 13.390625 -14.25 C 12.503906 -15.257812 11.3125 -15.765625 9.8125 -15.765625 C 8.75 -15.765625 7.832031 -15.519531 7.0625 -15.03125 C 6.289062 -14.539062 5.679688 -13.890625 5.234375 -13.078125 C 4.785156 -12.265625 4.53125 -11.394531 4.46875 -10.46875 Z M 4.46875 -10.46875 "/></g></g></g><g fill="#000000" fill-opacity="1"><g transform="translate(926.381026, 229.939069)"><g><path d="M 2.53125 0 L 2.53125 -18.03125 L 5.203125 -18.03125 L 5.203125 -15.296875 L 5.390625 -15.296875 C 5.710938 -16.191406 6.304688 -16.914062 7.171875 -17.46875 C 8.035156 -18.03125 9.007812 -18.3125 10.09375 -18.3125 C 10.59375 -18.3125 11.03125 -18.25 11.40625 -18.125 C 11.78125 -18.007812 12.109375 -17.851562 12.390625 -17.65625 L 11.453125 -15.296875 C 11.253906 -15.398438 11.023438 -15.476562 10.765625 -15.53125 C 10.503906 -15.59375 10.203125 -15.625 9.859375 -15.625 C 8.546875 -15.625 7.457031 -15.222656 6.59375 -14.421875 C 5.726562 -13.617188 5.296875 -12.613281 5.296875 -11.40625 L 5.296875 0 Z M 2.53125 0 "/></g></g></g></svg>